<svg width="20" height="20" viewBox="0 0 20 20" fill="none" xmlns="http://www.w3.org/2000/svg">
<path d="M9.07184 2.80539C10.2752 2.80429 11.4519 3.16014 12.4531 3.82792C13.4542 4.49569 14.2348 5.4454 14.6961 6.55688C15.1573 7.66837 15.2786 8.8917 15.0445 10.0721C14.8104 11.2525 14.2315 12.337 13.3809 13.1883C12.5304 14.0396 11.4464 14.6196 10.2662 14.8548C9.08603 15.0899 7.86259 14.9698 6.75068 14.5095C5.63878 14.0493 4.68836 13.2695 4.01967 12.269C3.35098 11.2685 2.99406 10.0921 2.99406 8.88873C3.00135 7.27853 3.64385 5.73629 4.78192 4.59718C5.91999 3.45807 7.46165 2.81416 9.07184 2.80539ZM9.07184 1.6665C7.64341 1.6665 6.24707 2.09008 5.05938 2.88367C3.87169 3.67726 2.946 4.80521 2.39937 6.1249C1.85274 7.44459 1.70971 8.89674 1.98839 10.2977C2.26706 11.6987 2.95491 12.9856 3.96495 13.9956C4.975 15.0057 6.26188 15.6935 7.66285 15.9722C9.06382 16.2508 10.516 16.1078 11.8357 15.5612C13.1553 15.0146 14.2833 14.0889 15.0769 12.9012C15.8705 11.7135 16.2941 10.3171 16.2941 8.88873C16.2941 6.97327 15.5331 5.13627 14.1787 3.78184C12.8243 2.42741 10.9873 1.6665 9.07184 1.6665Z" fill="#121212"/>
<path d="M19.4449 18.4943L15.3504 14.3721L14.5615 15.1554L18.656 19.2776C18.7074 19.3294 18.7685 19.3706 18.8359 19.3988C18.9032 19.4269 18.9755 19.4416 19.0484 19.4418C19.1214 19.4421 19.1938 19.428 19.2613 19.4003C19.3289 19.3726 19.3903 19.3318 19.4421 19.2804C19.4939 19.229 19.535 19.1678 19.5632 19.1005C19.5914 19.0331 19.606 18.9609 19.6063 18.8879C19.6065 18.8149 19.5924 18.7426 19.5647 18.6751C19.537 18.6075 19.4963 18.5461 19.4449 18.4943Z" fill="#121212"/>
</svg>
